<?xml version="1.0" encoding="UTF-8" standalone="no"?>
<svg width="67px" height="56px" viewBox="0 0 67 56" version="1.1" xmlns="http://www.w3.org/2000/svg" xmlns:xlink="http://www.w3.org/1999/xlink">
    <!-- Generator: Sketch 3.8.3 (29802) - http://www.bohemiancoding.com/sketch -->
    <title>Cart</title>
    <desc>Created with Sketch.</desc>
    <defs></defs>
    <g id="Page-1" stroke="none" stroke-width="1" fill="none" fill-rule="evenodd">
        <g id="Desktop-HD" transform="translate(-1188.000000, -17.000000)" fill="#2D303D">
            <g id="Header-Copy-2">
                <g id="Cart" transform="translate(1188.000000, 12.000000)">
                    <path d="M25.734266,55.909089 C25.734266,57.2878789 25.2249409,58.4810603 24.2062933,59.4886357 C23.1876456,60.4962111 21.9813523,61 20.5874132,61 C19.1934718,61 17.9871785,60.4962111 16.9685308,59.4886357 C15.9498832,58.4810603 15.4405581,57.2878789 15.4405581,55.909089 C15.4405581,54.5303015 15.9498832,53.33712 16.9685308,52.3295446 C17.9871785,51.3219692 19.1934718,50.8181803 20.5874132,50.8181803 C21.9813523,50.8181803 23.1876456,51.3219692 24.2062933,52.3295446 C25.2249409,53.33712 25.734266,54.5303015 25.734266,55.909089 L25.734266,55.909089 Z M61.7622373,55.909089 C61.7622373,57.2878789 61.2529123,58.4810603 60.2342646,59.4886357 C59.215617,60.4962111 58.0093236,61 56.6153846,61 C55.2214432,61 54.0151498,60.4962111 52.9965022,59.4886357 C51.9778545,58.4810603 51.4685295,57.2878789 51.4685295,55.909089 C51.4685295,54.5303015 51.9778545,53.33712 52.9965022,52.3295446 C54.0151498,51.3219692 55.2214432,50.8181803 56.6153846,50.8181803 C58.0093236,50.8181803 59.215617,51.3219692 60.2342646,52.3295446 C61.2529123,53.33712 61.7622373,54.5303015 61.7622373,55.909089 L61.7622373,55.909089 Z M66.90909,12.6363642 L66.90909,32.9999988 C66.90909,33.6363621 66.6879359,34.199811 66.2456277,34.6903408 C65.8033195,35.1808706 65.2604885,35.4659092 64.6171322,35.5454543 L22.638111,40.3977276 C22.9865951,41.9886347 23.1608384,42.916665 23.1608384,43.1818185 C23.1608384,43.6060599 22.8391615,44.4545451 22.1958028,45.7272716 L59.1888098,45.7272716 C59.8857805,45.7272716 60.4889272,45.9791661 60.9982498,46.482955 C61.5075748,46.9867415 61.7622373,47.5833322 61.7622373,48.2727272 C61.7622373,48.9621197 61.5075748,49.5587105 60.9982498,50.0624994 C60.4889272,50.5662882 59.8857805,50.8181803 59.1888098,50.8181803 L18.0139857,50.8181803 C17.317015,50.8181803 16.7138683,50.5662882 16.2045457,50.0624994 C15.6952206,49.5587105 15.4405581,48.9621197 15.4405581,48.2727272 C15.4405581,47.9810602 15.5477846,47.5634471 15.7622375,47.0198857 C15.9766904,46.4763242 16.1911409,45.9990512 16.4055938,45.5880665 C16.6200467,45.1770818 16.9082176,44.6467795 17.2701042,43.9971595 C17.6319931,43.3475371 17.8397424,42.9564399 17.8933568,42.8238631 L10.7762232,10.0909087 L2.57342756,10.0909087 C1.87645684,10.0909087 1.27331017,9.83901422 0.763985142,9.3352277 C0.254662515,8.83143882 0,8.23484809 0,7.54545552 C0,6.85606057 0.254662515,6.25946984 0.763985142,5.75568096 C1.27331017,5.25189444 1.87645684,5 2.57342756,5 L12.867133,5 C13.2960364,5 13.6780289,5.08617348 14.0131107,5.25852281 C14.3481924,5.43087214 14.6095562,5.63636329 14.7972018,5.875001 C14.9848475,6.11363634 15.1590908,6.43844754 15.3199293,6.84943221 C15.4807677,7.26041688 15.5879942,7.60511316 15.6416086,7.88352344 C15.6952206,8.16193134 15.7689387,8.55303092 15.8627627,9.05681743 C15.9565844,9.56060632 16.0169,9.9053026 16.0437072,10.0909087 L64.3356625,10.0909087 C65.0326332,10.0909087 65.6357799,10.3428031 66.1451025,10.846592 C66.6544275,11.3503785 66.90909,11.9469692 66.90909,12.6363642 L66.90909,12.6363642 Z"></path>
                </g>
            </g>
        </g>
    </g>
</svg>