<?xml version="1.0" encoding="UTF-8" standalone="no"?>
<svg width="79px" height="100px" viewBox="0 0 79 100" version="1.1" xmlns="http://www.w3.org/2000/svg" xmlns:xlink="http://www.w3.org/1999/xlink">
    <!-- Generator: Sketch 3.8.3 (29802) - http://www.bohemiancoding.com/sketch -->
    <title>Fill 467</title>
    <desc>Created with Sketch.</desc>
    <defs></defs>
    <g id="Page-1" stroke="none" stroke-width="1" fill="none" fill-rule="evenodd">
        <g id="Desktop-HD" transform="translate(-542.000000, -290.000000)" fill="#F1F7FE">
            <g id="Orders-Copy-2" transform="translate(460.000000, 265.000000)">
                <g id="Icon" transform="translate(47.000000, 0.000000)">
                    <path d="M75.8470217,58.4686981 C74.529058,58.4686981 73.4599061,57.3995462 73.4599061,56.079119 C73.4599061,54.7611553 74.529058,53.6920034 75.8470217,53.6920034 C77.167449,53.6920034 78.2366009,54.7611553 78.2366009,56.079119 C78.2366009,57.3995462 77.167449,58.4686981 75.8470217,58.4686981 L75.8470217,58.4686981 Z M53.4514922,54.4384389 C54.5945486,54.4384389 55.518355,55.3622453 55.518355,56.5053017 C55.518355,57.6458946 54.5945486,58.5721644 53.4514922,58.5721644 C52.3108993,58.5721644 51.382166,57.6458946 51.382166,56.5053017 C51.382166,55.3622453 52.3108993,54.4384389 53.4514922,54.4384389 L53.4514922,54.4384389 Z M63.0541514,27.9141109 C63.0763227,27.8968665 65.3575085,26.091133 67.9022871,26.7833719 C68.4959867,26.9434984 69.0551974,27.2415799 69.5897734,27.6455912 C68.7177002,28.056993 68.1486355,28.4905661 68.0993658,28.5299818 C62.5737721,32.9839602 60.2925862,42.1850715 59.3416816,49.0877525 L54.6758436,49.2872947 C55.441987,42.5299592 57.5014593,32.3927241 63.0541514,27.9141109 L63.0541514,27.9141109 Z M73.0632853,32.9962776 C73.0903836,33.0775725 75.3099823,39.3496018 75.1991256,48.4102945 L61.0143869,49.0163115 C61.9579012,42.411712 64.1233032,33.8166176 69.114321,29.7962124 C69.1291019,29.7863584 69.8213408,29.254246 70.84615,28.877333 C71.676344,29.9046057 72.4178526,31.276766 73.0632853,32.9962776 L73.0632853,32.9962776 Z M73.9649203,28.6704004 C76.0588813,29.2370016 77.8005643,31.3334262 79.1259184,34.8808426 C79.1505533,34.9498201 81.0326548,40.2561638 81.2469778,48.1540922 L76.8324152,48.341317 C76.9457354,39.0884726 74.7039654,32.7671736 74.5857181,32.4370668 C74.009263,30.899853 73.3490494,29.5966702 72.6124678,28.5324453 C73.0485044,28.5176644 73.4993219,28.5422992 73.9649203,28.6704004 L73.9649203,28.6704004 Z M113.614689,117.46174 L110.027857,49.1099239 L103.29762,47.9742579 L103.29762,47.969331 L100.008869,47.3534601 L82.8827309,48.0826512 C82.6684079,40.0073519 80.7567446,34.6221768 80.6483513,34.3191683 C79.123455,30.2470299 77.0221034,27.818035 74.3960299,27.1011613 C73.2997797,26.8006163 72.272507,26.8572764 71.3634816,27.0494282 C70.4470657,26.1453297 69.4395009,25.5220683 68.3333967,25.2190598 C64.992913,24.3026439 62.1525164,26.5518045 62.0342691,26.6478803 C55.9125124,31.587165 53.7692816,42.3550518 53.0129922,49.3562722 L37.9783517,49.9992415 L35,112.549554 L99.4151695,125 L104.600802,122.2138 L104.598339,122.10787 L113.614689,117.46174 L113.614689,117.46174 Z" id="Fill-467"></path>
                </g>
            </g>
        </g>
    </g>
</svg>