<?xml version="1.0" encoding="UTF-8" standalone="no"?>
<svg width="99px" height="73px" viewBox="0 0 99 73" version="1.1" xmlns="http://www.w3.org/2000/svg" xmlns:xlink="http://www.w3.org/1999/xlink">
    <!-- Generator: Sketch 3.8.3 (29802) - http://www.bohemiancoding.com/sketch -->
    <title>Seller</title>
    <desc>Created with Sketch.</desc>
    <defs></defs>
    <g id="Page-1" stroke="none" stroke-width="1" fill="none" fill-rule="evenodd">
        <g id="Desktop-HD" transform="translate(-1082.000000, -304.000000)" fill="#E9F2FE">
            <g id="Seller-Copy-2" transform="translate(1009.000000, 265.000000)">
                <g id="Icon" transform="translate(48.000000, 0.000000)">
                    <g id="Seller" transform="translate(25.000000, 39.000000)">
                        <path d="M5.31052632,63.5776316 L11.3223684,57.0223684 L88.2763158,57.0223684 L93.9407895,63.5776316 L5.31052632,63.5776316 L5.31052632,63.5776316 Z M42.2894737,68.8868421 L62.375,68.8868421 L62.375,66.9144737 L42.2894737,66.9144737 L42.2894737,68.8868421 Z M36.6842105,68.8868421 L38.9013158,68.8868421 L38.9013158,66.9144737 L36.6842105,66.9144737 L36.6842105,68.8868421 Z M15.2473684,52.3789474 L84.3394737,52.3789474 L84.3394737,5.56184211 L15.2473684,5.56184211 L15.2473684,52.3789474 Z M89.5526316,55.1263158 L89.5526316,0.631578947 L10.1723684,0.631578947 L10.1723684,55.0131579 L0.294736842,65.7815789 L0.294736842,72.2592105 L98.7644737,72.2592105 L98.7644737,65.7815789 L89.5526316,55.1263158 L89.5526316,55.1263158 Z" id="Fill-757"></path>
                        <path d="M52.6894737,37.9710526 L52.6894737,32.6302632 C53.7434211,33.075 54.5328947,33.5013158 55.0592105,33.9171053 C55.5842105,34.3328947 55.8486842,34.8407895 55.8486842,35.4407895 C55.8486842,36.8 54.7947368,37.6421053 52.6894737,37.9710526 L52.6894737,37.9710526 Z M49.5065789,25.2276316 C48.4526316,24.8 47.6894737,24.3802632 47.2184211,23.9723684 C46.7460526,23.5644737 46.5105263,23.0460526 46.5105263,22.4157895 C46.5105263,21.2013158 47.5092105,20.4578947 49.5065789,20.1868421 L49.5065789,25.2276316 L49.5065789,25.2276316 Z M59.1355263,29.2197368 C57.8565789,28.4315789 55.7078947,27.5013158 52.6894737,26.4289474 L52.6894737,20.1 C55.2302632,20.3 57.7065789,20.8592105 60.1236842,21.775 L62.3065789,16.7539474 C59.4407895,15.5815789 56.2368421,14.9223684 52.6894737,14.7776316 L52.6894737,11.5828947 L49.5065789,11.5828947 L49.5065789,14.8644737 C46.3631579,15.1513158 43.9118421,15.9631579 42.1539474,17.2986842 C40.3960526,18.6381579 39.5184211,20.3434211 39.5184211,22.4157895 C39.5184211,24.3473684 40.1565789,25.9671053 41.4342105,27.2763158 C42.7118421,28.5855263 44.8842105,29.7973684 47.9486842,30.9131579 L49.5065789,31.4723684 L49.5065789,38.1223684 C48.0210526,38.0381579 46.3263158,37.7565789 44.4302632,37.2842105 C42.5342105,36.8131579 40.9118421,36.2697368 39.5644737,35.6552632 L39.5644737,41.3197368 C42.4131579,42.4776316 45.7276316,43.0934211 49.5065789,43.1644737 L49.5065789,47.4776316 L52.6894737,47.4776316 L52.6894737,43.0776316 C55.8934211,42.8065789 58.3881579,41.9815789 60.1697368,40.6 C61.9513158,39.2210526 62.8407895,37.3934211 62.8407895,35.1184211 C62.8407895,33.8592105 62.5421053,32.7578947 61.9460526,31.8157895 C61.3513158,30.8710526 60.4118421,30.0052632 59.1355263,29.2197368 L59.1355263,29.2197368 Z" id="Fill-758"></path>
                    </g>
                </g>
            </g>
        </g>
    </g>
</svg>