<?xml version="1.0" encoding="UTF-8" standalone="no"?>
<svg width="101px" height="100px" viewBox="0 0 101 100" version="1.1" xmlns="http://www.w3.org/2000/svg" xmlns:xlink="http://www.w3.org/1999/xlink">
    <!-- Generator: Sketch 3.8.3 (29802) - http://www.bohemiancoding.com/sketch -->
    <title>Settings</title>
    <desc>Created with Sketch.</desc>
    <defs>
        <polygon id="path-1" points="0.166218487 50.4436975 49.3379832 50.4436975 49.3379832 0.240896359 0.166218487 0.240896359"></polygon>
    </defs>
    <g id="Page-1" stroke="none" stroke-width="1" fill="none" fill-rule="evenodd">
        <g id="Desktop-HD" transform="translate(-258.000000, -290.000000)">
            <g id="Settings-Copy-2" transform="translate(185.000000, 265.000000)">
                <g id="Icon" transform="translate(48.000000, 0.000000)">
                    <g id="Settings" transform="translate(25.000000, 25.000000)">
                        <path d="M34.4867227,68.4329412 C33.1063866,68.4329412 31.7260504,68.3486275 30.3529412,68.177591 L28.4956303,61.7721569 L23.3163585,60.0979272 L18.0937255,64.144986 C15.7666667,62.8345098 13.5648739,61.2253221 11.5461625,59.3198319 L13.7383193,53.232381 L10.582577,48.6698039 L4.03260504,48.8817927 C2.87148459,46.3668347 2.03798319,43.7410644 1.52969188,41.0695238 L6.91613445,37.3886275 L6.90408964,31.9082353 L1.54896359,28.220112 C2.06689076,25.5437535 2.90761905,22.9179832 4.0687395,20.4126611 L10.5319888,20.5836975 L13.7431373,16.1295238 L11.5871148,10.0155742 C11.6304762,9.97462185 11.6714286,9.93607843 11.7147899,9.89512605 C13.7118207,8.04022409 15.87507,6.47439776 18.1467227,5.20005602 L23.3380392,9.19170868 L28.5028571,7.49098039 L30.3023529,1.19876751 C31.685098,1.02532213 33.079888,0.93859944 34.4698599,0.93859944 C35.8068347,0.93859944 37.1438095,1.0205042 38.4711485,1.1794958 L40.3284594,7.44521008 L45.4764146,9.1772549 L50.6942297,5.13260504 C53.0116527,6.4189916 55.2038095,8.00168067 57.220112,9.87344538 L55.0231373,16.1295238 L58.2342857,20.552381 L64.8613445,20.3548459 C66.0585994,22.9203922 66.9137815,25.6015686 67.4317087,28.3333333 L61.8718207,31.9323249 L61.8718207,37.3428571 L67.4509804,40.927395 C66.945098,43.637479 66.1091877,46.2969748 64.9456583,48.8360224 L58.2342857,48.6914846 L55.0520448,53.0854342 L56.757591,57.9515406 C55.4904762,59.3583754 54.4112605,60.8784314 53.5151261,62.4779832 C52.6262185,63.0970868 51.7132213,63.6656022 50.7833613,64.1883473 L45.4619608,60.0834734 L40.2995518,61.7577031 L38.4253782,68.2016807 C37.1173109,68.3558543 35.8020168,68.4329412 34.4867227,68.4329412 M34.4529972,11.3742297 C21.6469468,11.3742297 11.2305882,21.7929972 11.2305882,34.5990476 C11.2305882,47.407507 21.6469468,57.8262745 34.4529972,57.8262745 C47.2614566,57.8262745 57.6802241,47.407507 57.6802241,34.5990476 C57.6802241,21.7929972 47.2614566,11.3742297 34.4529972,11.3742297 M34.4529972,54.2272829 C23.6319328,54.2272829 14.8271709,45.422521 14.8271709,34.5990476 C14.8271709,23.7755742 23.6319328,14.9708123 34.4529972,14.9708123 C45.2764706,14.9708123 54.0836415,23.7755742 54.0836415,34.5990476 C54.0836415,45.422521 45.2764706,54.2272829 34.4529972,54.2272829 M34.2795518,22.6096359 C27.5392717,22.6096359 22.0757423,28.1044818 22.0757423,34.8881232 C22.0757423,41.6669468 27.5392717,47.1617927 34.2795518,47.1617927 C41.0222409,47.1617927 46.4833613,41.6669468 46.4833613,34.8881232 C46.4833613,28.1044818 41.0222409,22.6096359 34.2795518,22.6096359" id="Fill-193" fill="#F3F8FE"></path>
                        <path d="M34.2795518,47.1617927 C27.5392717,47.1617927 22.0757423,41.6669468 22.0757423,34.8881232 C22.0757423,28.1044818 27.5392717,22.6096359 34.2795518,22.6096359 C41.0222409,22.6096359 46.4833613,28.1044818 46.4833613,34.8881232 C46.4833613,41.6669468 41.0222409,47.1617927 34.2795518,47.1617927" id="Fill-194" fill="#333745"></path>
                        <path d="M45.4764146,9.1772549 L40.3284594,7.44521008 L38.4711485,1.1794958 C42.7133333,1.68778711 46.8687955,3.01030812 50.6942297,5.13260504 L45.4764146,9.1772549" id="Fill-195" fill="#333745"></path>
                        <path d="M58.2342857,20.552381 L55.0231373,16.1295238 L57.220112,9.87344538 C57.8753501,10.4829132 58.5089076,11.1212885 59.1231933,11.7885714 C61.522521,14.4022969 63.4352381,17.2954622 64.8613445,20.3548459 L58.2342857,20.552381" id="Fill-196" fill="#333745"></path>
                        <path d="M67.4509804,40.927395 L61.8718207,37.3428571 L61.8718207,31.9323249 L67.4317087,28.3333333 C68.2218487,32.4960224 68.2242577,36.7743417 67.4509804,40.927395" id="Fill-197" fill="#333745"></path>
                        <path d="M56.757591,57.9515406 L55.0520448,53.0854342 L58.2342857,48.6914846 L64.9456583,48.8360224 C64.2615126,50.3271709 63.4641457,51.7797759 62.5535574,53.1769748 C61.0744538,54.0610644 59.6652101,55.1137815 58.3523249,56.3327171 C58.3185994,56.3640336 58.2872829,56.3929412 58.2559664,56.4242577 C57.7308123,56.9156863 57.2321569,57.4263866 56.757591,57.9515406" id="Fill-198" fill="#333745"></path>
                        <path d="M38.4253782,68.2016807 L40.2995518,61.7577031 L45.4619608,60.0834734 L50.7833613,64.1883473 C46.9073389,66.3612325 42.7012885,67.6933894 38.4253782,68.2016807" id="Fill-199" fill="#333745"></path>
                        <path d="M30.3529412,68.177591 C26.0938936,67.650028 21.9263866,66.3034174 18.0937255,64.144986 L23.3163585,60.0979272 L28.4956303,61.7721569 L30.3529412,68.177591" id="Fill-200" fill="#333745"></path>
                        <path d="M11.5461625,59.3198319 C10.9583754,58.7657703 10.387451,58.187619 9.83338936,57.5829692 C7.39792717,54.9307003 5.46593838,51.9893557 4.03260504,48.8817927 L10.582577,48.6698039 L13.7383193,53.232381 L11.5461625,59.3198319" id="Fill-201" fill="#333745"></path>
                        <path d="M1.52969188,41.0695238 C0.720280112,36.820112 0.729915966,32.45507 1.54896359,28.220112 L6.90408964,31.9082353 L6.91613445,37.3886275 L1.52969188,41.0695238" id="Fill-202" fill="#333745"></path>
                        <path d="M10.5319888,20.5836975 L4.0687395,20.4126611 C5.8345098,16.5992717 8.34464986,13.0580952 11.5871148,10.0155742 L13.7431373,16.1295238 L10.5319888,20.5836975" id="Fill-203" fill="#333745"></path>
                        <path d="M23.3380392,9.19170868 L18.1467227,5.20005602 C21.962521,3.05607843 26.0963025,1.72633053 30.3023529,1.19876751 L28.5028571,7.49098039 L23.3380392,9.19170868" id="Fill-204" fill="#333745"></path>
                        <path d="M34.4529972,57.8262745 C21.6469468,57.8262745 11.2305882,47.407507 11.2305882,34.5990476 C11.2305882,21.7929972 21.6469468,11.3742297 34.4529972,11.3742297 C47.2614566,11.3742297 57.6802241,21.7929972 57.6802241,34.5990476 C57.6802241,47.407507 47.2614566,57.8262745 34.4529972,57.8262745 M34.4529972,14.9708123 C23.6319328,14.9708123 14.8271709,23.7755742 14.8271709,34.5990476 C14.8271709,45.422521 23.6319328,54.2272829 34.4529972,54.2272829 C45.2764706,54.2272829 54.0836415,45.422521 54.0836415,34.5990476 C54.0836415,23.7755742 45.2764706,14.9708123 34.4529972,14.9708123" id="Fill-205" fill="#333745"></path>
                        <g id="Group-208" transform="translate(50.588235, 49.411765)">
                            <mask id="mask-2" fill="white">
                                <use xlink:href="#path-1"></use>
                            </mask>
                            <g id="Clip-207"></g>
                            <path d="M24.7496919,50.5882353 C23.7186555,50.5882353 22.687619,50.5231933 21.6638095,50.3979272 L20.2786555,45.6185434 L16.4146779,44.3707003 L12.5193838,47.3891317 C10.782521,46.4110924 9.14201681,45.2114286 7.6340056,43.7877311 L9.27210084,39.2492437 L6.91613445,35.8453782 L2.0307563,36.0043697 C1.16593838,34.1277871 0.54442577,32.1692997 0.166218487,30.1746779 L4.17955182,27.4308683 L4.17232493,23.3428571 L0.178263305,20.5918207 C0.563697479,18.5947899 1.19243697,16.6363025 2.0572549,14.7669468 L6.87759104,14.8922129 L9.2745098,11.57507 L8.20252101,8.53014006 C9.6189916,7.03658263 10.8716527,5.43943978 11.9653221,3.76521008 C12.1628571,3.64717087 12.3603922,3.53154062 12.5603361,3.41831933 L16.4315406,6.39579832 L20.2858824,5.12627451 L21.6252661,0.436022409 C22.6587115,0.305938375 23.6969748,0.240896359 24.7376471,0.240896359 C25.734958,0.240896359 26.7298599,0.301120448 27.7223529,0.419159664 L29.105098,5.09254902 L32.947395,6.3837535 L36.8378711,3.36773109 C38.567507,4.32890756 40.2031933,5.50689076 41.7063866,6.9064986 L40.0682913,11.57507 L42.4628011,14.8729412 L47.4059944,14.7211765 C48.2997199,16.6363025 48.9380952,18.6357423 49.3235294,20.6713165 L45.1752941,23.3597199 L45.1752941,27.3971429 L49.3379832,30.0686835 C48.9621849,32.0922129 48.3382633,34.0747899 47.4710364,35.9706443 L42.4628011,35.8622409 L40.089972,39.1408403 L41.7521569,43.8816807 C41.742521,43.8889076 41.7328852,43.8985434 41.7232493,43.9057703 C40.2272829,45.2957423 38.6084594,46.4664986 36.9053221,47.4204482 L32.9353501,44.3610644 L29.0834174,45.6064986 L27.6862185,50.4147899 C26.7105882,50.5304202 25.7301401,50.5882353 24.7496919,50.5882353 M24.7231933,8.0242577 C15.1716527,8.0242577 7.39792717,15.7955742 7.39792717,25.3495238 C7.39792717,34.9034734 15.1716527,42.6747899 24.7231933,42.6747899 C34.2771429,42.6747899 42.0484594,34.9034734 42.0484594,25.3495238 C42.0484594,15.7955742 34.2771429,8.0242577 24.7231933,8.0242577 M24.7231933,39.9887955 C16.6507563,39.9887955 10.0839216,33.4219608 10.0839216,25.3495238 C10.0839216,17.2770868 16.6507563,10.7078431 24.7231933,10.7078431 C32.7980392,10.7078431 39.3672829,17.2770868 39.3672829,25.3495238 C39.3672829,33.4219608 32.7980392,39.9887955 24.7231933,39.9887955 M24.5931092,16.405042 C19.5656022,16.405042 15.4896359,20.505098 15.4896359,25.5639216 C15.4896359,30.6227451 19.5656022,34.7203922 24.5931092,34.7203922 C29.6230252,34.7203922 33.6989916,30.6227451 33.6989916,25.5639216 C33.6989916,20.505098 29.6230252,16.405042 24.5931092,16.405042" id="Fill-206" fill="#F3F8FE" mask="url(#mask-2)"></path>
                        </g>
                        <path d="M58.7907563,57.9419048 L58.2559664,56.4242577 C58.2872829,56.3929412 58.3185994,56.3640336 58.3523249,56.3327171 C59.6652101,55.1137815 61.0744538,54.0610644 62.5535574,53.1769748 C61.459888,54.8512045 60.2072269,56.4483473 58.7907563,57.9419048" id="Fill-209" fill="#F3F8FE"></path>
                        <path d="M75.1813445,84.1321569 C70.1538375,84.1321569 66.0778711,80.0345098 66.0778711,74.9756863 C66.0778711,69.9168627 70.1538375,65.8168067 75.1813445,65.8168067 C80.2112605,65.8168067 84.2872269,69.9168627 84.2872269,74.9756863 C84.2872269,80.0345098 80.2112605,84.1321569 75.1813445,84.1321569" id="Fill-210" fill="#333745"></path>
                        <path d="M83.5356303,55.7955182 L79.6933333,54.5043137 L78.3105882,49.8309244 C81.4735574,50.2115406 84.5738936,51.1968067 87.4261064,52.7794958 L83.5356303,55.7955182" id="Fill-211" fill="#333745"></path>
                        <path d="M93.0510364,64.2847059 L90.6565266,60.9868347 L92.2946218,56.3182633 C92.7836415,56.7711485 93.2557983,57.2457143 93.7159104,57.7467787 C95.5057703,59.6956303 96.9318768,61.8540616 97.9942297,64.1329412 L93.0510364,64.2847059" id="Fill-212" fill="#333745"></path>
                        <path d="M99.9262185,79.4804482 L95.7635294,76.8089076 L95.7635294,72.7714846 L99.9117647,70.0830812 C100.501961,73.1906443 100.50437,76.382521 99.9262185,79.4804482" id="Fill-213" fill="#333745"></path>
                        <path d="M92.3403922,93.2934454 L90.6782073,88.552605 L93.0510364,85.2740056 L98.0592717,85.382409 C96.7247059,88.287619 94.8168067,90.9832493 92.3403922,93.2934454" id="Fill-214" fill="#333745"></path>
                        <path d="M78.2744538,99.8265546 L79.6716527,95.0182633 L83.5235854,93.7728291 L87.4935574,96.8322129 C84.6028011,98.4534454 81.4639216,99.4483473 78.2744538,99.8265546" id="Fill-215" fill="#333745"></path>
                        <path d="M72.2520448,99.8096919 C69.0770308,99.4146218 65.9670588,98.410084 63.107619,96.8008964 L67.0029132,93.782465 L70.8668908,95.0303081 L72.2520448,99.8096919" id="Fill-216" fill="#333745"></path>
                        <path d="M58.2222409,93.1994958 C57.7862185,92.787563 57.3598319,92.3563585 56.9478992,91.9058824 C55.1315406,89.9281232 53.6885714,87.7335574 52.6189916,85.4161345 L57.5043697,85.2571429 L59.8603361,88.6610084 L58.2222409,93.1994958" id="Fill-217" fill="#333745"></path>
                        <path d="M50.7544538,79.5864426 C50.1498039,76.4186555 50.1570308,73.1617367 50.7664986,70.0035854 L54.7605602,72.7546218 L54.7677871,76.8426331 L50.7544538,79.5864426" id="Fill-218" fill="#333745"></path>
                        <path d="M57.4658263,64.3039776 L52.6454902,64.1787115 C52.9128852,63.6029692 53.2019608,63.0368627 53.5151261,62.4779832 C54.8087395,61.5794398 56.0517647,60.5797199 57.2417927,59.4764146 C57.2538375,59.4643697 57.2682913,59.4523249 57.2803361,59.4402801 C57.8030812,58.9536695 58.3065546,58.452605 58.7907563,57.9419048 L59.8627451,60.9868347 L57.4658263,64.3039776" id="Fill-219" fill="#333745"></path>
                        <path d="M53.5151261,62.4779832 C54.4112605,60.8784314 55.4904762,59.3583754 56.757591,57.9515406 L57.2803361,59.4402801 C57.2682913,59.4523249 57.2538375,59.4643697 57.2417927,59.4764146 C56.0517647,60.5797199 54.8087395,61.5794398 53.5151261,62.4779832" id="Fill-220" fill="#F3F8FE"></path>
                        <path d="M57.2803361,59.4402801 L56.757591,57.9515406 C57.2321569,57.4263866 57.7308123,56.9156863 58.2559664,56.4242577 L58.7907563,57.9419048 C58.3065546,58.452605 57.8030812,58.9536695 57.2803361,59.4402801" id="Fill-221" fill="#333745"></path>
                        <path d="M67.0197759,55.807563 L63.1485714,52.830084 C65.9935574,51.2329412 69.0770308,50.2404482 72.2135014,49.8477871 L70.8741176,54.5380392 L67.0197759,55.807563" id="Fill-222" fill="#333745"></path>
                        <path d="M75.3114286,92.0865546 C65.759888,92.0865546 57.9861625,84.3152381 57.9861625,74.7612885 C57.9861625,65.2073389 65.759888,57.4360224 75.3114286,57.4360224 C84.8653782,57.4360224 92.6366947,65.2073389 92.6366947,74.7612885 C92.6366947,84.3152381 84.8653782,92.0865546 75.3114286,92.0865546 M75.3114286,60.1196078 C67.2389916,60.1196078 60.6721569,66.6888515 60.6721569,74.7612885 C60.6721569,82.8337255 67.2389916,89.4005602 75.3114286,89.4005602 C83.3862745,89.4005602 89.9555182,82.8337255 89.9555182,74.7612885 C89.9555182,66.6888515 83.3862745,60.1196078 75.3114286,60.1196078" id="Fill-223" fill="#333745"></path>
                    </g>
                </g>
            </g>
        </g>
    </g>
</svg>