<?xml version="1.0" encoding="UTF-8" standalone="no"?>
<svg width="84px" height="99px" viewBox="0 0 84 99" version="1.1" xmlns="http://www.w3.org/2000/svg" xmlns:xlink="http://www.w3.org/1999/xlink">
    <!-- Generator: Sketch 3.8.3 (29802) - http://www.bohemiancoding.com/sketch -->
    <title>Wishlist</title>
    <desc>Created with Sketch.</desc>
    <defs></defs>
    <g id="Page-1" stroke="none" stroke-width="1" fill="none" fill-rule="evenodd">
        <g id="Desktop-HD" transform="translate(-815.000000, -291.000000)" fill="#EFF6FE">
            <g id="Wishlist-Copy-2" transform="translate(734.000000, 265.000000)">
                <g id="Icon" transform="translate(48.000000, 0.000000)">
                    <g id="Wishlist" transform="translate(33.000000, 26.000000)">
                        <path d="M25.3638196,10.2616708 C26.0896261,7.96286855 27.7144428,6.64809582 29.8148827,6.64809582 L30.3509897,6.67269656 C34.5133798,7.10457617 37.0701979,8.9222973 38.3980938,12.3937346 C39.4538123,15.1517506 39.6380132,18.3717138 39.563783,21.572543 C38.8902126,21.3046683 38.0571848,20.9848587 37.0289589,20.5885135 C35.6735704,20.0664312 34.4583944,19.5990172 34.2109604,19.4869472 C29.5592009,17.2838145 26.7054619,14.930344 25.4847874,12.2734644 C25.1768695,11.6147113 25.141129,10.9750921 25.3638196,10.2616708 L25.3638196,10.2616708 Z M45.9503299,10.2862715 C47.5256598,6.16701474 50.5581012,4.01308354 55.4957845,3.5046683 L56.1418622,3.47460074 C58.6299487,3.47460074 60.5516862,5.03264742 61.4122067,7.75239558 C61.6788856,8.60522113 61.6321481,9.36511057 61.2692449,10.1523342 C59.817632,13.3012285 56.4332845,16.0975123 50.9237537,18.702457 C50.648827,18.8281941 49.2741935,19.3530098 47.71261,19.9543612 C46.4259531,20.4545762 45.3922287,20.8509214 44.5646994,21.1789312 C44.4767229,17.3740172 44.6994135,13.5445025 45.9503299,10.2862715 L45.9503299,10.2862715 Z M32.9572947,22.0700246 C33.1469941,22.1629607 34.3291789,22.6221744 35.701063,23.152457 C33.4494135,24.1173526 31.9785557,25.5769963 31.9785557,27.2361794 L51.875,27.2361794 C51.875,25.6617322 50.5526026,24.2676904 48.496151,23.3027948 L48.9497801,23.1251229 C50.659824,22.4663698 52.152676,21.8868857 52.3863636,21.7748157 C56.3865469,19.8887592 61.9840543,16.767199 64.3786657,11.5737101 C65.0962243,10.0156634 65.1979472,8.39201474 64.6755865,6.73829853 C63.2679619,2.28556511 59.6059384,-0.330313268 55.1438783,0.123433661 C48.9497801,0.757585995 44.7791422,3.76980958 42.7529326,9.07536855 C42.2360704,10.4202088 41.8869135,11.8251843 41.6367302,13.2656941 C41.4717742,12.6288084 41.326063,11.9864558 41.0923754,11.3741708 C39.3823314,6.90503686 35.8687683,4.36296069 30.6479106,3.82447789 C26.8869135,3.45273342 23.7994868,5.65039926 22.6145528,9.40064496 C22.1719208,10.7919533 22.2598974,12.1695946 22.8647361,13.4734337 C24.8771994,17.8523649 29.5976906,20.4791769 32.9572947,22.0700246 L32.9572947,22.0700246 Z" id="Fill-472"></path>
                        <polygon id="Fill-473" points="0.991568915 50.0246622 83.2386364 50.0246622 83.2386364 30.5654791 0.991568915 30.5654791"></polygon>
                        <polygon id="Fill-474" points="44.4217375 98.1491708 78.9085411 98.1491708 78.9085411 55.0869472 44.4217375 55.0869472"></polygon>
                        <polygon id="Fill-475" points="5.09622434 98.1491708 39.4318182 98.1491708 39.4318182 55.0869472 5.09622434 55.0869472"></polygon>
                    </g>
                </g>
            </g>
        </g>
    </g>
</svg>