<?xml version="1.0" encoding="UTF-8" standalone="no"?>
<svg width="39px" height="36px" viewBox="0 0 39 36" version="1.1" xmlns="http://www.w3.org/2000/svg" xmlns:xlink="http://www.w3.org/1999/xlink">
    <!-- Generator: Sketch 3.8.3 (29802) - http://www.bohemiancoding.com/sketch -->
    <title>Shape Copy 2</title>
    <desc>Created with Sketch.</desc>
    <defs></defs>
    <g id="Page-1" stroke="none" stroke-width="1" fill="none" fill-rule="evenodd">
        <g id="Tablet-Portrait" transform="translate(-365.000000, -919.000000)" fill="#F3F8FE">
            <g id="How-It-Works" transform="translate(0.000000, 624.000000)">
                <path d="M402.05163,313.000001 C402.05163,313.880435 401.75,314.622283 401.14674,315.225543 L385.225543,331.14674 C384.589674,331.75 383.847827,332.05163 382.999999,332.05163 C382.168478,332.05163 381.434783,331.75 380.798913,331.14674 L378.964674,329.3125 C378.345109,328.692935 378.035326,327.951088 378.035326,327.086957 C378.035326,326.222826 378.345109,325.480978 378.964674,324.861413 L386.130435,317.695652 L368.913043,317.695652 C368.065217,317.695652 367.376359,317.389946 366.846468,316.778533 C366.316577,316.167119 366.05163,315.429348 366.05163,314.565217 L366.05163,311.434783 C366.05163,310.570652 366.316577,309.832881 366.846468,309.221467 C367.376359,308.610054 368.065217,308.304348 368.913043,308.304348 L386.130435,308.304348 L378.964674,301.114131 C378.345109,300.527174 378.035326,299.793478 378.035326,298.913043 C378.035326,298.032609 378.345109,297.298913 378.964674,296.711957 L380.798913,294.877718 C381.418478,294.258151 382.152173,293.94837 382.999999,293.94837 C383.86413,293.94837 384.605978,294.258151 385.225543,294.877718 L401.14674,310.798913 C401.75,311.369565 402.05163,312.103261 402.05163,313.000001 L402.05163,313.000001 Z" id="Shape-Copy-2" transform="translate(384.051630, 313.000000) rotate(90.000000) translate(-384.051630, -313.000000) "></path>
            </g>
        </g>
    </g>
</svg>