<?xml version="1.0" encoding="UTF-8" standalone="no"?>
<svg width="36px" height="39px" viewBox="0 0 36 39" version="1.1" xmlns="http://www.w3.org/2000/svg" xmlns:xlink="http://www.w3.org/1999/xlink">
    <!-- Generator: Sketch 3.8.3 (29802) - http://www.bohemiancoding.com/sketch -->
    <title>Shape Copy</title>
    <desc>Created with Sketch.</desc>
    <defs></defs>
    <g id="Page-1" stroke="none" stroke-width="1" fill="none" fill-rule="evenodd">
        <g id="Desktop-HD" transform="translate(-885.000000, -927.000000)" fill="#F3F8FE">
            <g id="How-It-Works-Copy" transform="translate(0.000000, 714.000000)">
                <path d="M921,232.051631 C921,232.932065 920.69837,233.673914 920.09511,234.277174 L904.173913,250.19837 C903.538043,250.801631 902.796196,251.103261 901.948369,251.103261 C901.116848,251.103261 900.383152,250.801631 899.747283,250.19837 L897.913044,248.36413 C897.293479,247.744565 896.983696,247.002718 896.983696,246.138587 C896.983696,245.274457 897.293479,244.532608 897.913044,243.913043 L905.078805,236.747282 L887.861413,236.747282 C887.013587,236.747282 886.324728,236.441576 885.794837,235.830163 C885.264946,235.21875 885,234.480978 885,233.616848 L885,230.486413 C885,229.622282 885.264946,228.884511 885.794837,228.273098 C886.324728,227.661684 887.013587,227.355978 887.861413,227.355978 L905.078805,227.355978 L897.913044,220.165761 C897.293479,219.578804 896.983696,218.845109 896.983696,217.964673 C896.983696,217.084239 897.293479,216.350544 897.913044,215.763587 L899.747283,213.929348 C900.366848,213.309782 901.100543,213 901.948369,213 C902.8125,213 903.554348,213.309782 904.173913,213.929348 L920.09511,229.850543 C920.69837,230.421195 921,231.154891 921,232.051631 L921,232.051631 Z" id="Shape-Copy"></path>
            </g>
        </g>
    </g>
</svg>