<?xml version="1.0" encoding="UTF-8" standalone="no"?>
<svg width="37px" height="30px" viewBox="0 0 37 30" version="1.1" xmlns="http://www.w3.org/2000/svg" xmlns:xlink="http://www.w3.org/1999/xlink">
    <!-- Generator: Sketch 39 (31667) - http://www.bohemiancoding.com/sketch -->
    <title>Cart</title>
    <desc>Created with Sketch.</desc>
    <defs></defs>
    <g id="Page-1" stroke="none" stroke-width="1" fill="none" fill-rule="evenodd">
        <g id="Desktop-HD---Cart" transform="translate(-335.000000, -199.000000)" fill="#0C2B5A">
            <g id="Breadcrumbs-Copy-2" transform="translate(0.000000, 165.000000)">
                <path d="M369.953786,61.3638151 C369.953786,62.0550639 369.393314,62.6106195 368.709931,62.6106195 C368.021632,62.6106195 367.46706,62.0550639 367.46706,61.3638151 C367.46706,60.6814159 368.021632,60.1248771 368.709931,60.1248771 C369.393314,60.1248771 369.953786,60.6814159 369.953786,61.3638151 L369.953786,61.3638151 Z M353.519174,62.6106195 C352.832842,62.6106195 352.277286,62.0550639 352.277286,61.3638151 C352.277286,60.6814159 352.832842,60.1248771 353.519174,60.1248771 C354.204523,60.1248771 354.764012,60.6814159 354.764012,61.3638151 C354.764012,62.0550639 354.204523,62.6106195 353.519174,62.6106195 L353.519174,62.6106195 Z M353.321534,57.1651917 C352.077679,57.1651917 351.262537,56.8446411 350.892822,56.207473 C350.372665,55.3146509 350.777778,53.9714848 351.121927,53.1425762 L370.887906,53.1425762 C371.235005,53.1425762 371.518191,52.8633235 371.518191,52.5142576 L371.518191,40.26647 C371.518191,39.9183874 371.235005,39.6361849 370.887906,39.6361849 L344.318584,39.6361849 L341.873156,34.4788594 L339.201573,34.4788594 C339.179941,34.2123894 338.979351,34 338.725664,34 L335.485742,34 C335.217306,34 335,34.2340216 335,34.5231072 L335,35.0491642 C335,35.3362832 335.217306,35.5722714 335.485742,35.5722714 L338.725664,35.5722714 C338.979351,35.5722714 339.180924,35.3588987 339.201573,35.0914454 L341.484759,35.0914454 L349.806293,52.6352016 C349.542773,53.2222222 348.625369,55.5083579 349.572271,57.0324484 C350.083579,57.8564405 351.051131,58.2841691 352.415929,58.3441495 L352.415929,58.9832842 C351.514258,59.4021632 350.886922,60.3087512 350.886922,61.366765 C350.886922,62.8230088 352.06588,64 353.522124,64 C354.976401,64 356.154376,62.8230088 356.154376,61.366765 C356.154376,60.3657817 355.589971,59.5054081 354.766962,59.0599803 L354.766962,58.366765 L367.533923,58.366765 L367.533923,59.0216323 C366.672566,59.4552606 366.075713,60.3372665 366.075713,61.366765 C366.075713,62.8230088 367.255654,64 368.709931,64 C370.165192,64 371.344149,62.8230088 371.344149,61.366765 C371.344149,60.3382498 370.749263,59.4562439 369.887906,59.0226155 L369.887906,58.366765 L371.52704,58.366765 L371.52704,57.1651917 L353.321534,57.1651917 L353.321534,57.1651917 Z" id="Cart"></path>
            </g>
        </g>
    </g>
</svg>