<?xml version="1.0" encoding="UTF-8" standalone="no"?>
<svg width="22px" height="14px" viewBox="0 0 22 14" version="1.1" xmlns="http://www.w3.org/2000/svg" xmlns:xlink="http://www.w3.org/1999/xlink">
    <!-- Generator: Sketch 3.8.3 (29802) - http://www.bohemiancoding.com/sketch -->
    <title>Shape Copy</title>
    <desc>Created with Sketch.</desc>
    <defs></defs>
    <g id="Page-1" stroke="none" stroke-width="1" fill="none" fill-rule="evenodd">
        <g id="Tablet---Menu-Open" transform="translate(-347.000000, -104.000000)" fill="#F3F8FE">
            <g id="Menu">
                <g id="Menu-Tier-1" transform="translate(15.000000, 49.000000)">
                    <path d="M353.547826,58.7198068 L343.511111,68.7429952 C343.339775,68.9143317 343.136876,69 342.902415,69 C342.667955,69 342.465056,68.9143317 342.29372,68.7429952 L332.257005,58.7198068 C332.085668,58.5484702 332,58.3433172 332,58.1043478 C332,57.8653784 332.085668,57.6602254 332.257005,57.4888889 L334.502415,55.2570048 C334.673752,55.0856683 334.876651,55 335.111111,55 C335.345572,55 335.54847,55.0856683 335.719807,55.2570048 L342.902415,62.4396135 L350.085024,55.2570048 C350.256361,55.0856683 350.459259,55 350.69372,55 C350.92818,55 351.131079,55.0856683 351.302415,55.2570048 L353.547826,57.4888889 C353.719163,57.6602254 353.804831,57.8653784 353.804831,58.1043478 C353.804831,58.3433172 353.719163,58.5484702 353.547826,58.7198068 L353.547826,58.7198068 Z" id="Shape-Copy"></path>
                </g>
            </g>
        </g>
    </g>
</svg>