<?xml version="1.0" encoding="UTF-8" standalone="no"?>
<svg width="73px" height="31px" viewBox="0 0 73 31" version="1.1" xmlns="http://www.w3.org/2000/svg" xmlns:xlink="http://www.w3.org/1999/xlink">
    <!-- Generator: Sketch 3.8.3 (29802) - http://www.bohemiancoding.com/sketch -->
    <title>Group 2</title>
    <desc>Created with Sketch.</desc>
    <defs></defs>
    <g id="Page-1" stroke="none" stroke-width="1" fill="none" fill-rule="evenodd">
        <g id="Desktop-HD" transform="translate(-1050.000000, -819.000000)" fill="#1F3A66">
            <g id="How-It-Works-Copy" transform="translate(0.000000, 714.000000)">
                <g id="Step-3" transform="translate(919.000000, 71.000000)">
                    <g id="Icon-1" transform="translate(118.000000, 0.000000)">
                        <g id="Group-2" transform="translate(13.000000, 34.000000)">
                            <path d="M62.5219535,24.1885075 C58.2260332,24.1885075 54.7423953,20.7260056 54.7423953,16.4557556 C54.7423953,12.1821259 58.2260332,8.72131391 62.5219535,8.72131391 C66.8161744,8.72131391 70.2998123,12.1821259 70.2998123,16.4557556 C70.2998123,20.7260056 66.8161744,24.1885075 62.5219535,24.1885075 L62.5219535,24.1885075 Z M36.3946694,28.9843008 C29.0314485,28.9843008 23.0633821,23.0495489 23.0633821,15.7291203 C23.0633821,8.40531203 29.0314485,2.47225 36.3946694,2.47225 C43.756191,2.47225 49.7242575,8.40531203 49.7242575,15.7291203 C49.7242575,23.0495489 43.756191,28.9843008 36.3946694,28.9843008 L36.3946694,28.9843008 Z M11.268294,24.1885075 C6.97237375,24.1885075 3.49043522,20.7260056 3.49043522,16.4557556 C3.49043522,12.1821259 6.97237375,8.72131391 11.268294,8.72131391 C15.5642143,8.72131391 19.0461528,12.1821259 19.0461528,16.4557556 C19.0461528,20.7260056 15.5642143,24.1885075 11.268294,24.1885075 L11.268294,24.1885075 Z M0.708622924,30.7248459 L72.0807159,30.7248459 L72.0807159,0.735084586 L0.708622924,0.735084586 L0.708622924,30.7248459 Z" id="Fill-413"></path>
                            <path d="M38.6089037,18.4024624 C38.6089037,17.9664812 38.4729568,17.6149925 38.2027625,17.3463064 C37.9325681,17.0759305 37.4091728,16.8089342 36.6308771,16.5436278 L36.6308771,20.0686541 C37.9495615,19.8878402 38.6089037,19.3318797 38.6089037,18.4024624 L38.6089037,18.4024624 Z M33.6230532,12.7752632 C33.6230532,13.2332124 33.7606993,13.6015996 34.0342924,13.8804248 C34.306186,14.1575602 34.7803007,14.4194868 35.4549369,14.6678947 L35.4549369,11.1597669 C34.8533721,11.2577782 34.3979502,11.4453515 34.0886711,11.7258665 C33.7776927,12.0080714 33.6230532,12.3561805 33.6230532,12.7752632 L33.6230532,12.7752632 Z M40.1569983,18.2824831 C40.1569983,19.1054398 39.8477193,19.7830695 39.2274618,20.317062 C38.6089037,20.8527444 37.7422425,21.1890244 36.6308771,21.3275921 L36.6308771,23.429765 L35.4549369,23.429765 L35.4549369,21.4103947 C34.7752027,21.4103947 34.1158605,21.3580094 33.4786096,21.2515489 C32.8396595,21.1467782 32.3179635,20.9997613 31.9101229,20.8104981 L31.9101229,19.3977838 C32.4148256,19.620844 32.9959983,19.8050376 33.6553405,19.946985 C34.3146827,20.0889323 34.9145482,20.159906 35.4549369,20.159906 L35.4549369,16.1718609 C34.2093239,15.7798158 33.3358654,15.3235564 32.8345615,14.8047726 C32.3332575,14.2842989 32.0834551,13.6151184 32.0834551,12.7921617 C32.0834551,12.001312 32.3927342,11.3524098 33.0078937,10.843765 C33.6247525,10.3368102 34.4404336,10.0292575 35.4549369,9.91941729 L35.4549369,8.27012406 L36.6308771,8.27012406 L36.6308771,9.90082895 C37.7490399,9.93293609 38.8281179,10.1559962 39.866412,10.5716992 L39.3922973,11.7596635 C38.4865515,11.4031053 37.5655116,11.1918741 36.6308771,11.1242801 L36.6308771,15.05825 C37.5842043,15.3607331 38.2996246,15.6547669 38.7720399,15.9420414 C39.2461545,16.2276259 39.5962176,16.5571466 39.8205299,16.9289135 C40.0448422,17.3006805 40.1569983,17.7518703 40.1569983,18.2824831 L40.1569983,18.2824831 Z" id="Fill-414"></path>
                            <path d="M12.5105083,17.9090263 C12.5105083,17.6775169 12.4391362,17.4916335 12.2946927,17.3496861 C12.1519485,17.2060489 11.8732575,17.0641015 11.4603189,16.923844 L11.4603189,18.7928177 C12.1604452,18.6964962 12.5105083,18.4024624 12.5105083,17.9090263 L12.5105083,17.9090263 Z M9.86464286,14.9213722 C9.86464286,15.1664004 9.93771429,15.3607331 10.0821578,15.5094398 C10.2283007,15.6564568 10.4798023,15.7967143 10.8366628,15.9268327 L10.8366628,14.0646184 C10.5171877,14.1153139 10.2758821,14.2167049 10.1110465,14.3654117 C9.9479103,14.5158083 9.86464286,14.7000019 9.86464286,14.9213722 L9.86464286,14.9213722 Z M13.3329867,17.8465019 C13.3329867,18.2824831 13.1681512,18.6424211 12.8401794,18.9263158 C12.5105083,19.2102105 12.0516877,19.3893346 11.4603189,19.463688 L11.4603189,20.5789887 L10.8366628,20.5789887 L10.8366628,19.5059342 C10.4764037,19.5059342 10.1246412,19.4772068 9.78647342,19.4214417 C9.44830565,19.3656767 9.17131395,19.2879436 8.95549834,19.1865526 L8.95549834,18.4379492 C9.22229402,18.5562387 9.53157309,18.65425 9.88163621,18.7286034 C10.2316993,18.8046466 10.5494751,18.8418233 10.8366628,18.8418233 L10.8366628,16.7244417 C10.1756213,16.5165902 9.71170266,16.2749417 9.44660631,15.9994962 C9.17981063,15.7240508 9.04726246,15.3674925 9.04726246,14.9315113 C9.04726246,14.5107387 9.21039867,14.1676992 9.53837043,13.8973233 C9.86634219,13.6269474 10.2979734,13.4647218 10.8366628,13.4072669 L10.8366628,12.530235 L11.4603189,12.530235 L11.4603189,13.3971278 C12.053387,13.4123365 12.6260631,13.5323158 13.1783472,13.7536861 L12.9268455,14.384 C12.4459336,14.193047 11.9582243,14.0815169 11.4603189,14.0460301 L11.4603189,16.1346842 C11.9667209,16.2952199 12.3456728,16.4506861 12.5971744,16.6027726 C12.8486761,16.754859 13.0339037,16.9306034 13.1545565,17.1283158 C13.27351,17.3243383 13.3329867,17.564297 13.3329867,17.8465019 L13.3329867,17.8465019 Z" id="Fill-415"></path>
                            <path d="M63.9459967,17.9090263 C63.9459967,17.6775169 63.8746246,17.4916335 63.7301811,17.3496861 C63.5874369,17.2060489 63.3087458,17.0641015 62.8958073,16.923844 L62.8958073,18.7928177 C63.5959336,18.6964962 63.9459967,18.4024624 63.9459967,17.9090263 L63.9459967,17.9090263 Z M61.3001312,14.9213722 C61.3001312,15.1664004 61.3732027,15.3607331 61.5176462,15.5094398 C61.663789,15.6564568 61.9152907,15.7967143 62.2721512,15.9268327 L62.2721512,14.0646184 C61.9543754,14.1153139 61.7113704,14.2167049 61.5465349,14.3654117 C61.3833987,14.5158083 61.3001312,14.7000019 61.3001312,14.9213722 L61.3001312,14.9213722 Z M64.7684751,17.8465019 C64.7684751,18.2824831 64.6036395,18.6424211 64.2756678,18.9263158 C63.9459967,19.2102105 63.4871761,19.3893346 62.8958073,19.463688 L62.8958073,20.5789887 L62.2721512,20.5789887 L62.2721512,19.5059342 C61.911892,19.5059342 61.5618289,19.4772068 61.2219618,19.4214417 C60.883794,19.3656767 60.6068023,19.2879436 60.3909867,19.1865526 L60.3909867,18.4379492 C60.6577824,18.5562387 60.9670615,18.65425 61.3171246,18.7286034 C61.6671877,18.8046466 61.9849635,18.8418233 62.2721512,18.8418233 L62.2721512,16.7244417 C61.6111096,16.5165902 61.147191,16.2749417 60.8820947,15.9994962 C60.615299,15.7240508 60.4827508,15.3674925 60.4827508,14.9315113 C60.4827508,14.5107387 60.645887,14.1676992 60.9738588,13.8973233 C61.3018306,13.6269474 61.7334618,13.4647218 62.2721512,13.4072669 L62.2721512,12.530235 L62.8958073,12.530235 L62.8958073,13.3971278 C63.4888754,13.4123365 64.0615515,13.5323158 64.6138355,13.7536861 L64.3623339,14.384 C63.8814219,14.193047 63.3937126,14.0815169 62.8958073,14.0460301 L62.8958073,16.1346842 C63.4022093,16.2952199 63.7811611,16.4506861 64.0326628,16.6027726 C64.2841645,16.754859 64.469392,16.9306034 64.5900449,17.1283158 C64.7089983,17.3243383 64.7684751,17.564297 64.7684751,17.8465019 L64.7684751,17.8465019 Z" id="Fill-416"></path>
                        </g>
                    </g>
                </g>
            </g>
        </g>
    </g>
</svg>