<?xml version="1.0" encoding="UTF-8" standalone="no"?>
<svg width="20px" height="20px" viewBox="0 0 20 20" version="1.1" xmlns="http://www.w3.org/2000/svg" xmlns:xlink="http://www.w3.org/1999/xlink">
    <!-- Generator: Sketch 39.1 (31720) - http://www.bohemiancoding.com/sketch -->
    <title>message-failure</title>
    <desc>Created with Sketch.</desc>
    <defs></defs>
    <g id="Page-1" stroke="none" stroke-width="1" fill="none" fill-rule="evenodd">
        <path d="M10,0 C11.8142361,0 13.4874132,0.447048607 15.0195312,1.34114583 C16.5516493,2.23524306 17.7647569,3.44835069 18.6588542,4.98046875 C19.5529514,6.51258681 20,8.18576389 20,10 C20,11.8142361 19.5529514,13.4874132 18.6588542,15.0195312 C17.7647569,16.5516493 16.5516493,17.7647569 15.0195312,18.6588542 C13.4874132,19.5529514 11.8142361,20 10,20 C8.18576389,20 6.51258681,19.5529514 4.98046875,18.6588542 C3.44835069,17.7647569 2.23524306,16.5516493 1.34114583,15.0195312 C0.447048607,13.4874132 0,11.8142361 0,10 C0,8.18576389 0.447048607,6.51258681 1.34114583,4.98046875 C2.23524306,3.44835069 3.44835069,2.23524306 4.98046875,1.34114583 C6.51258681,0.447048607 8.18576389,0 10,0 L10,0 Z M11.6666667,16.2369792 L11.6666667,13.7630208 C11.6666667,13.6414931 11.6276042,13.5394965 11.5494792,13.4570313 C11.4713542,13.374566 11.3758681,13.3333333 11.2630208,13.3333333 L8.76302083,13.3333333 C8.65017361,13.3333333 8.55034723,13.3767361 8.46354167,13.4635417 C8.37673611,13.5503472 8.33333333,13.6501736 8.33333333,13.7630208 L8.33333333,16.2369792 C8.33333333,16.3498264 8.37673611,16.4496528 8.46354167,16.5364583 C8.55034723,16.6232639 8.65017361,16.6666667 8.76302083,16.6666667 L11.2630208,16.6666667 C11.3758681,16.6666667 11.4713542,16.625434 11.5494792,16.5429688 C11.6276042,16.4605035 11.6666667,16.3585069 11.6666667,16.2369792 L11.6666667,16.2369792 Z M11.640625,11.7578125 L11.875,3.671875 C11.875,3.56770833 11.8315972,3.48958333 11.7447917,3.4375 C11.6579861,3.36805556 11.5538194,3.33333333 11.4322917,3.33333333 L8.56770833,3.33333333 C8.44618056,3.33333333 8.34201389,3.36805556 8.25520833,3.4375 C8.16840277,3.48958333 8.125,3.56770833 8.125,3.671875 L8.34635417,11.7578125 C8.34635417,11.8446181 8.38975694,11.9205729 8.4765625,11.9856771 C8.56336806,12.0507813 8.66753473,12.0833333 8.7890625,12.0833333 L11.1979167,12.0833333 C11.3194444,12.0833333 11.421441,12.0507813 11.5039062,11.9856771 C11.5863715,11.9205729 11.6319444,11.8446181 11.640625,11.7578125 L11.640625,11.7578125 Z" id="message-failure" fill="#17181a"></path>
    </g>
</svg>