<?xml version="1.0" encoding="UTF-8" standalone="no"?>
<svg width="38px" height="30px" viewBox="0 0 38 30" version="1.1" xmlns="http://www.w3.org/2000/svg" xmlns:xlink="http://www.w3.org/1999/xlink">
    <!-- Generator: Sketch 39 (31667) - http://www.bohemiancoding.com/sketch -->
    <title>Payment</title>
    <desc>Created with Sketch.</desc>
    <defs></defs>
    <g id="Page-1" stroke="none" stroke-width="1" fill="none" fill-rule="evenodd">
        <g id="Desktop-HD---Cart" transform="translate(-1068.000000, -199.000000)" fill="#F3F8FE">
            <g id="Breadcrumbs-Copy-2" transform="translate(0.000000, 165.000000)">
                <g id="Payment" transform="translate(1068.000000, 34.000000)">
                    <path d="M0.944638009,18.5917742 L31.6006222,18.5917742 L31.6006222,13.5783871 L0.944638009,13.5783871 L0.944638009,18.5917742 Z M29.8173869,28.2895161 L30.6160973,28.2895161 L30.6160973,26.4 L29.8173869,26.4 L29.8173869,28.2895161 Z M28.2413688,28.2895161 L29.0400792,28.2895161 L29.0400792,26.4 L28.2413688,26.4 L28.2413688,28.2895161 Z M26.6648643,28.2895161 L27.4640611,28.2895161 L27.4640611,26.4 L26.6648643,26.4 L26.6648643,28.2895161 Z M25.0893326,28.2895161 L25.888043,28.2895161 L25.888043,26.4 L25.0893326,26.4 L25.0893326,28.2895161 Z M24.083405,19.7753226 L23.6626471,19.7753226 L23.6626471,20.1716129 L23.9973077,20.1716129 L23.9973077,20.3743548 L23.6626471,20.3743548 L23.6626471,20.7904839 L24.083405,20.7904839 L24.083405,20.9937097 L23.4194344,20.9937097 L23.4194344,19.5725806 L24.083405,19.5725806 L24.083405,19.7753226 L24.083405,19.7753226 Z M23.0395362,20.9937097 C23.0264027,20.9579032 23.0176471,20.9351613 23.0176471,20.8185484 L23.0176471,20.5959677 C23.0176471,20.4633871 22.9690045,20.415 22.858586,20.415 L22.773948,20.415 L22.773948,20.9937097 L22.5307353,20.9937097 L22.5307353,19.5725806 L22.8979864,19.5725806 C23.1504412,19.5725806 23.258914,19.6804839 23.258914,19.8991935 L23.258914,20.0109677 C23.258914,20.1570968 23.2078394,20.2524194 23.0998529,20.298871 C23.2214593,20.3462903 23.2613462,20.4537097 23.2613462,20.6017742 L23.2613462,20.8204839 C23.2613462,20.8901613 23.2632919,20.9404839 23.2880995,20.9937097 L23.0395362,20.9937097 L23.0395362,20.9937097 Z M22.2417986,28.2895161 L23.040509,28.2895161 L23.040509,26.4 L22.2417986,26.4 L22.2417986,28.2895161 Z M21.6396041,20.655 L21.6396041,19.5725806 L21.8833032,19.5725806 L21.8833032,20.6690323 C21.8833032,20.7706452 21.9319457,20.8069355 22.0097738,20.8069355 C22.0871154,20.8069355 22.1357579,20.7706452 22.1357579,20.6690323 L22.1357579,19.5725806 L22.3658371,19.5725806 L22.3658371,20.655 C22.3658371,20.8819355 22.2422851,21.0120968 22.0029638,21.0120968 C21.764129,21.0120968 21.6396041,20.8819355 21.6396041,20.655 L21.6396041,20.655 Z M21.545724,19.7753226 L21.2913235,19.7753226 L21.2913235,20.9937097 L21.0481109,20.9937097 L21.0481109,19.7753226 L20.7937104,19.7753226 L20.7937104,19.5725806 L21.545724,19.5725806 L21.545724,19.7753226 L21.545724,19.7753226 Z M20.6652941,28.2895161 L21.4640045,28.2895161 L21.4640045,26.4 L20.6652941,26.4 L20.6652941,28.2895161 Z M20.548552,20.7358065 L20.2498869,20.7358065 L20.2075679,20.9937097 L19.9842986,20.9937097 L20.2323756,19.5725806 L20.5884389,19.5725806 L20.8360294,20.9937097 L20.590871,20.9937097 L20.548552,20.7358065 L20.548552,20.7358065 Z M19.1024095,20.9937097 L19.1024095,19.5725806 L19.4073982,19.5725806 L19.6574208,20.4232258 L19.6574208,19.5725806 L19.8743665,19.5725806 L19.8743665,20.9937097 L19.6243439,20.9937097 L19.3213009,19.9645161 L19.3213009,20.9937097 L19.1024095,20.9937097 L19.1024095,20.9937097 Z M19.089276,28.2895161 L19.8884729,28.2895161 L19.8884729,26.4 L19.089276,26.4 L19.089276,28.2895161 Z M18.9486991,20.051129 L18.7181335,20.051129 L18.7181335,19.8991935 C18.7181335,19.7975806 18.669491,19.7593548 18.5921493,19.7593548 C18.5148077,19.7593548 18.4661652,19.7975806 18.4661652,19.8991935 L18.4661652,20.6666129 C18.4661652,20.7682258 18.5148077,20.8045161 18.5921493,20.8045161 C18.669491,20.8045161 18.7181335,20.7682258 18.7181335,20.6666129 L18.7181335,20.4053226 L18.6077149,20.4053226 L18.6077149,20.201129 L18.9486991,20.201129 L18.9486991,20.6525806 C18.9486991,20.88 18.8246606,21.0096774 18.5858258,21.0096774 C18.3465045,21.0096774 18.2224661,20.88 18.2224661,20.6525806 L18.2224661,19.9132258 C18.2224661,19.6862903 18.3465045,19.556129 18.5858258,19.556129 C18.8246606,19.556129 18.9486991,19.6862903 18.9486991,19.9132258 L18.9486991,20.051129 L18.9486991,20.051129 Z M17.8226244,20.9937097 L18.0658371,20.9937097 L18.0658371,19.5725806 L17.8226244,19.5725806 L17.8226244,20.9937097 Z M17.5132579,28.2895161 L18.3119683,28.2895161 L18.3119683,26.4 L17.5132579,26.4 L17.5132579,28.2895161 Z M16.9582466,20.6525806 L16.9582466,20.5654839 L17.1883258,20.5654839 L17.1883258,20.6666129 C17.1883258,20.7682258 17.2369683,20.8045161 17.31431,20.8045161 C17.3916516,20.8045161 17.4402941,20.7682258 17.4402941,20.6666129 C17.4402941,20.3743548 16.9650566,20.3196774 16.9650566,19.9132258 C16.9650566,19.6862903 17.0866629,19.556129 17.3230656,19.556129 C17.5599548,19.556129 17.6815611,19.6862903 17.6815611,19.9132258 L17.6815611,19.9577419 L17.4519683,19.9577419 L17.4519683,19.8991935 C17.4519683,19.7975806 17.4072172,19.7593548 17.3298756,19.7593548 C17.2525339,19.7593548 17.2082692,19.7975806 17.2082692,19.8991935 C17.2082692,20.1914516 17.6839932,20.246129 17.6839932,20.6525806 C17.6839932,20.88 17.5599548,21.0096774 17.3211199,21.0096774 C17.0822851,21.0096774 16.9582466,20.88 16.9582466,20.6525806 L16.9582466,20.6525806 Z M16.4995475,20.6419355 C16.4995475,20.8693548 16.3798869,20.9937097 16.1361878,20.9937097 L15.7509389,20.9937097 L15.7509389,19.5725806 L16.1361878,19.5725806 C16.3798869,19.5725806 16.4995475,19.6959677 16.4995475,19.9243548 L16.4995475,20.6419355 L16.4995475,20.6419355 Z M15.6016063,19.7753226 L15.1813348,19.7753226 L15.1813348,20.1716129 L15.515509,20.1716129 L15.515509,20.3743548 L15.1813348,20.3743548 L15.1813348,20.7904839 L15.6016063,20.7904839 L15.6016063,20.9937097 L14.9376357,20.9937097 L14.9376357,19.5725806 L15.6016063,19.5725806 L15.6016063,19.7753226 L15.6016063,19.7753226 Z M14.6564819,28.2895161 L15.4551923,28.2895161 L15.4551923,26.4 L14.6564819,26.4 L14.6564819,28.2895161 Z M14.1043891,19.7753226 L14.1043891,19.5725806 L14.7946267,19.5725806 L14.7946267,19.7714516 L14.3320362,20.7904839 L14.7946267,20.7904839 L14.7946267,20.9937097 L14.0820136,20.9937097 L14.0820136,20.7948387 L14.5441176,19.7753226 L14.1043891,19.7753226 L14.1043891,19.7753226 Z M13.6996833,20.9937097 L13.9428959,20.9937097 L13.9428959,19.5725806 L13.6996833,19.5725806 L13.6996833,20.9937097 Z M13.0804638,28.2895161 L13.8791742,28.2895161 L13.8791742,26.4 L13.0804638,26.4 L13.0804638,28.2895161 Z M13.0546833,20.9937097 L12.8109842,20.9937097 L12.8109842,19.5725806 L13.1782353,19.5725806 C13.43069,19.5725806 13.5391629,19.6804839 13.5391629,19.8991935 L13.5391629,20.0109677 C13.5391629,20.1570968 13.4885747,20.2524194 13.3801018,20.298871 C13.5017081,20.3462903 13.541595,20.4537097 13.541595,20.6017742 L13.541595,20.8204839 C13.541595,20.8901613 13.5435407,20.9404839 13.5683484,20.9937097 L13.3197851,20.9937097 C13.3066516,20.9579032 13.2978959,20.9351613 13.2978959,20.8185484 L13.2978959,20.5959677 C13.2978959,20.4633871 13.2492534,20.415 13.1388348,20.415 L13.0546833,20.415 L13.0546833,20.9937097 L13.0546833,20.9937097 Z M12.6553281,20.6525806 C12.6553281,20.88 12.5249661,21.0096774 12.2851584,21.0096774 C12.0463235,21.0096774 11.9159615,20.88 11.9159615,20.6525806 L11.9159615,19.9132258 C11.9159615,19.6862903 12.0463235,19.556129 12.2851584,19.556129 C12.5249661,19.556129 12.6553281,19.6862903 12.6553281,19.9132258 L12.6553281,20.6525806 L12.6553281,20.6525806 Z M11.5039593,28.2895161 L12.3026697,28.2895161 L12.3026697,26.4 L11.5039593,26.4 L11.5039593,28.2895161 Z M11.2354525,20.9937097 L10.9917534,20.9937097 L10.9917534,19.5725806 L11.2354525,19.5725806 L11.2354525,20.1817742 L11.5117421,20.1817742 L11.5117421,19.5725806 L11.759819,19.5725806 L11.759819,20.9937097 L11.5117421,20.9937097 L11.5117421,20.3840323 L11.2354525,20.3840323 L11.2354525,20.9937097 L11.2354525,20.9937097 Z M10.8866855,19.7753226 L10.6322851,19.7753226 L10.6322851,20.9937097 L10.388586,20.9937097 L10.388586,19.7753226 L10.1346719,19.7753226 L10.1346719,19.5725806 L10.8866855,19.5725806 L10.8866855,19.7753226 L10.8866855,19.7753226 Z M9.92794118,28.2895161 L10.727138,28.2895161 L10.727138,26.4 L9.92794118,26.4 L9.92794118,28.2895161 Z M9.3140724,20.655 L9.3140724,19.5725806 L9.55728507,19.5725806 L9.55728507,20.6690323 C9.55728507,20.7706452 9.60641403,20.8069355 9.68375566,20.8069355 C9.76109729,20.8069355 9.81022624,20.7706452 9.81022624,20.6690323 L9.81022624,19.5725806 L10.039819,19.5725806 L10.039819,20.655 C10.039819,20.8819355 9.91626697,21.0120968 9.67743213,21.0120968 C9.43811086,21.0120968 9.3140724,20.8819355 9.3140724,20.655 L9.3140724,20.655 Z M8.96773756,20.9937097 L8.92541855,20.7358065 L8.62723982,20.7358065 L8.58492081,20.9937097 L8.36165158,20.9937097 L8.60924208,19.5725806 L8.96579186,19.5725806 L9.21338235,20.9937097 L8.96773756,20.9937097 L8.96773756,20.9937097 Z M7.08138009,28.2895161 L7.88057692,28.2895161 L7.88057692,26.4 L7.08138009,26.4 L7.08138009,28.2895161 Z M5.50536199,28.2895161 L6.3040724,28.2895161 L6.3040724,26.4 L5.50536199,26.4 L5.50536199,28.2895161 Z M3.92934389,28.2895161 L4.7280543,28.2895161 L4.7280543,26.4 L3.92934389,26.4 L3.92934389,28.2895161 Z M2.35332579,28.2895161 L3.1520362,28.2895161 L3.1520362,26.4 L2.35332579,26.4 L2.35332579,28.2895161 Z M0.150791855,29.9748387 L32.3949548,29.9748387 L32.3949548,11.103871 L0.150791855,11.103871 L0.150791855,29.9748387 Z" id="Fill-44"></path>
                    <polyline id="Fill-45" points="8.65788462 20.5427419 8.92415385 20.5427419 8.79074359 19.8241935 8.65788462 20.5427419"></polyline>
                    <path d="" id="Fill-46"></path>
                    <path d="" id="Fill-47"></path>
                    <path d="" id="Fill-48"></path>
                    <polyline id="Fill-49" points="20.2805317 20.5427419 20.5468009 20.5427419 20.4133906 19.8241935 20.2805317 20.5427419"></polyline>
                    <path d="" id="Fill-50"></path>
                    <path d="M19.6856335,10.0785484 C19.7576244,9.86854839 19.711414,9.74951613 19.5328959,9.68854839 L19.2901697,9.60677419 L19.0245814,10.383871 L19.5795928,10.383871 C19.5815385,10.3775806 19.5849434,10.3751613 19.5873756,10.3693548 L19.6856335,10.0785484" id="Fill-51"></path>
                    <path d="M11.7671154,5.91290323 L11.5117421,6.66145161 L10.3482127,6.26806452 L10.7003846,5.23693548 L11.5793552,5.53451613 C11.7359842,5.58774194 11.8201357,5.7566129 11.7671154,5.91290323 L11.7671154,5.91290323 Z M11.1882692,7.60935484 L10.0247398,7.21645161 L10.2922738,6.43258065 L11.4553167,6.825 L11.1882692,7.60935484 L11.1882692,7.60935484 Z M10.8103167,8.71693548 L9.3140724,8.21129032 C9.5616629,8.14112903 9.77179864,7.95580645 9.86081448,7.69596774 L9.9688009,7.38048387 L11.1318439,7.7733871 L10.8103167,8.71693548 L10.8103167,8.71693548 Z M10.64931,9.18725806 C10.5958032,9.34354839 10.4255543,9.42725806 10.2684389,9.37403226 L6.97679864,8.2616129 C6.82065611,8.20935484 6.7360181,8.03951613 6.78952489,7.88370968 L6.89410633,7.57741935 L10.753405,8.88145161 L10.64931,9.18725806 L10.64931,9.18725806 Z M7.2715724,6.46935484 L8.43558824,6.86274194 L8.32760181,7.17822581 C8.2390724,7.43806452 8.29257919,7.71241935 8.44580317,7.91806452 L6.95053167,7.41241935 L7.2715724,6.46935484 L7.2715724,6.46935484 Z M7.59553167,5.52145161 L8.75906109,5.91483871 L8.49152715,6.69822581 L7.32799774,6.30532258 L7.59553167,5.52145161 L7.59553167,5.52145161 Z M7.90733032,4.6083871 C7.96035068,4.45306452 8.13108597,4.36935484 8.28820136,4.42258065 L9.16717195,4.72016129 L8.815,5.75032258 L7.65147059,5.35693548 L7.90733032,4.6083871 L7.90733032,4.6083871 Z M10.4158258,5.14064516 L9.57674208,7.60016129 C9.48626697,7.86435484 9.19635747,8.0066129 8.93076923,7.9166129 C8.66469457,7.82709677 8.52168552,7.53870968 8.61167421,7.27403226 L9.45173077,4.81548387 L10.4158258,5.14064516 L10.4158258,5.14064516 Z M33.1143778,23.8983871 L37.61819,10.706129 L7.08624434,0.391451613 L3.67494344,10.383871 L16.4455543,10.383871 L16.8799321,9.11225806 C17.0414253,8.64048387 17.3892195,8.45854839 17.883914,8.62548387 C18.3786086,8.79241935 18.5430204,9.14903226 18.3820136,9.61935484 L18.2842421,9.90532258 L17.8080317,9.74467742 L17.9160181,9.42870968 C17.9875226,9.21919355 17.9145588,9.10451613 17.7540385,9.05032258 C17.5935181,8.99612903 17.4655882,9.04209677 17.3940837,9.25209677 L17.0073756,10.383871 L18.4632466,10.383871 L18.9297285,9.01693548 L19.6904977,9.27290323 C20.2124321,9.44951613 20.3607919,9.74806452 20.2056222,10.2029032 L20.1438462,10.383871 L20.5159615,10.383871 L20.7708484,9.63822581 L22.1445136,10.1017742 L22.0486878,10.383871 L22.395509,10.383871 L22.4558258,10.2072581 L22.978733,10.383871 L33.1143778,10.383871 L33.1143778,13.8091935 L33.8016968,14.0414516 C34.3056335,14.2108065 34.465181,14.5504839 34.3041742,15.0217742 L33.7958597,16.5106452 C33.6723077,16.8740323 33.4432014,17.0583871 33.1143778,17.0462903 L33.1143778,23.8983871 L33.1143778,23.8983871 Z" id="Fill-52"></path>
                    <path d="M33.8075339,14.8306452 C33.8790385,14.6206452 33.8094796,14.5117742 33.6489593,14.4585484 L33.3653733,14.3622581 L33.1143778,15.0962903 L33.1143778,16.5662903 C33.1853959,16.5420968 33.243767,16.4820968 33.2846267,16.3620968 L33.8075339,14.8306452" id="Fill-53"></path>
                    <polyline id="Fill-54" points="21.0772964 10.4044516 21.5885294 10.4044516 21.1308032 10.2295161 21.0772964 10.4044516"></polyline>
                </g>
            </g>
        </g>
    </g>
</svg>