<?xml version="1.0" encoding="UTF-8" standalone="no"?>
<svg width="41px" height="66px" viewBox="0 0 41 66" version="1.1" xmlns="http://www.w3.org/2000/svg" xmlns:xlink="http://www.w3.org/1999/xlink">
    <!-- Generator: Sketch 3.8.3 (29802) - http://www.bohemiancoding.com/sketch -->
    <title>Fill 28</title>
    <desc>Created with Sketch.</desc>
    <defs></defs>
    <g id="Page-1" stroke="none" stroke-width="1" fill="none" fill-rule="evenodd">
        <g id="Desktop-HD" transform="translate(-333.000000, -802.000000)" fill="#1F3A66">
            <g id="How-It-Works-Copy" transform="translate(0.000000, 714.000000)">
                <g id="Step-1" transform="translate(185.000000, 71.000000)">
                    <g id="Icon-1" transform="translate(118.000000, 0.000000)">
                        <path d="M34.4162542,68.5971925 L65.9818249,68.5971925 L65.9818249,26.628962 L34.4162542,26.628962 L34.4162542,68.5971925 Z M52.6745475,76.6885113 C52.6745475,77.6897673 51.8618397,78.4992242 50.8605837,78.4992242 L49.5342446,78.4992242 C48.5378648,78.4992242 47.725157,77.6897673 47.725157,76.6885113 L47.725157,75.3605467 C47.725157,74.3609161 48.5378648,73.5514592 49.5342446,73.5514592 L50.8605837,73.5514592 C51.8618397,73.5514592 52.6745475,74.3609161 52.6745475,75.3605467 L52.6745475,76.6885113 L52.6745475,76.6885113 Z M67.9697082,17 L32.6510528,17 C31.1881788,17 30,18.1865534 30,19.647802 L30,80.3538234 C30,81.815072 31.1881788,83 32.6510528,83 L67.9697082,83 C69.4325822,83 70.6175102,81.815072 70.6175102,80.3538234 L70.6175102,19.647802 C70.6175102,18.1865534 69.4325822,17 67.9697082,17 L67.9697082,17 Z" id="Fill-28"></path>
                    </g>
                </g>
            </g>
        </g>
    </g>
</svg>