<?xml version="1.0" encoding="UTF-8" standalone="no"?>
<svg width="28px" height="28px" viewBox="0 0 28 28" version="1.1" xmlns="http://www.w3.org/2000/svg" xmlns:xlink="http://www.w3.org/1999/xlink">
    <!-- Generator: Sketch 3.8.3 (29802) - http://www.bohemiancoding.com/sketch -->
    <title>Plus</title>
    <desc>Created with Sketch.</desc>
    <defs></defs>
    <g id="Page-1" stroke="none" stroke-width="1" fill="none" fill-rule="evenodd">
        <g id="iPhone-6" transform="translate(-14.000000, -1602.000000)" fill="#F1F7FE">
            <g id="Footer-Menu" transform="translate(0.000000, 1442.000000)">
                <g id="My-Account" transform="translate(0.000000, 140.000000)">
                    <path d="M37.3333335,35.1666666 L37.3333335,32.8333334 C37.3333335,32.5173607 37.217883,32.2439233 36.9869797,32.0130211 C36.7560776,31.7821178 36.482639,31.6666662 36.1666674,31.6666662 L30.3333338,31.6666662 L30.3333338,25.8333337 C30.3333338,25.517361 30.2178822,25.2439235 29.98698,25.0130203 C29.7560767,24.7821181 29.4826393,24.6666665 29.1666666,24.6666665 L26.8333334,24.6666665 C26.5173618,24.6666665 26.2439243,24.7821181 26.0130211,25.0130203 C25.7821178,25.2439235 25.6666673,25.517361 25.6666673,25.8333337 L25.6666673,31.6666662 L19.8333337,31.6666662 C19.517361,31.6666662 19.2439235,31.7821178 19.0130214,32.0130211 C18.7821181,32.2439233 18.6666665,32.5173607 18.6666665,32.8333334 L18.6666665,35.1666666 C18.6666665,35.4826393 18.7821181,35.7560767 19.0130214,35.9869789 C19.2439235,36.2178822 19.517361,36.3333338 19.8333337,36.3333338 L25.6666673,36.3333338 L25.6666673,42.1666674 C25.6666673,42.482639 25.7821178,42.7560765 26.0130211,42.9869797 C26.2439243,43.2178819 26.5173618,43.3333335 26.8333334,43.3333335 L29.1666666,43.3333335 C29.4826393,43.3333335 29.7560767,43.2178819 29.98698,42.9869797 C30.2178822,42.7560765 30.3333338,42.482639 30.3333338,42.1666674 L30.3333338,36.3333338 L36.1666674,36.3333338 C36.482639,36.3333338 36.7560776,36.2178822 36.9869797,35.9869789 C37.217883,35.7560767 37.3333335,35.4826393 37.3333335,35.1666666 L37.3333335,35.1666666 Z M42.0000011,25.2499995 L42.0000011,42.7500005 C42.0000011,44.1961811 41.4865464,45.4327266 40.459636,46.459636 C39.4327266,47.4865453 38.1961811,48 36.7500005,48 L19.2500006,48 C17.80382,48 16.5672745,47.4865453 15.5403651,46.459636 C14.5134547,45.4327266 14,44.1961811 14,42.7500005 L14,25.2499995 C14,23.8038189 14.5134547,22.5672745 15.5403651,21.540364 C16.5672745,20.5134547 17.80382,20 19.2500006,20 L36.7500005,20 C38.1961811,20 39.4327266,20.5134547 40.459636,21.540364 C41.4865464,22.5672745 42.0000011,23.8038189 42.0000011,25.2499995 L42.0000011,25.2499995 Z" id="Plus"></path>
                </g>
            </g>
        </g>
    </g>
</svg>