<?xml version="1.0" encoding="UTF-8" standalone="no"?>
<svg width="19px" height="19px" viewBox="0 0 19 19" version="1.1" xmlns="http://www.w3.org/2000/svg" xmlns:xlink="http://www.w3.org/1999/xlink">
    <g id="Page-1" stroke="none" stroke-width="1" fill="none" fill-rule="evenodd">
        <g id="Desktop-HD" transform="translate(-200.000000, -1003.000000)" fill="#17181A">
            <g id="FAQ-Copy-2" transform="translate(0.000000, 912.000000)">
                <g id="Boxes" transform="translate(185.000000, 20.000000)">
                    <g id="FAQ-#1" transform="translate(0.000000, 61.000000)">
                        <path d="M30.8333328,20.2916662 L30.8333328,18.708333 C30.8333328,18.493923 30.7549914,18.3083762 30.5983071,18.1516926 C30.4416235,17.9950082 30.2560759,17.9166661 30.0416666,17.9166661 L26.0833332,17.9166661 L26.0833332,13.9583334 C26.0833332,13.7439234 26.004991,13.5583765 25.8483074,13.4016922 C25.6916231,13.2450086 25.5060763,13.1666664 25.2916662,13.1666664 L23.708333,13.1666664 C23.4939237,13.1666664 23.3083769,13.2450086 23.1516926,13.4016922 C22.9950082,13.5583765 22.9166668,13.7439234 22.9166668,13.9583334 L22.9166668,17.9166661 L18.9583334,17.9166661 C18.7439234,17.9166661 18.5583765,17.9950082 18.4016929,18.1516926 C18.2450086,18.3083762 18.1666664,18.493923 18.1666664,18.708333 L18.1666664,20.2916662 C18.1666664,20.5060763 18.2450086,20.6916231 18.4016929,20.8483067 C18.5583765,21.004991 18.7439234,21.0833332 18.9583334,21.0833332 L22.9166668,21.0833332 L22.9166668,25.0416666 C22.9166668,25.2560759 22.9950082,25.4416227 23.1516926,25.5983071 C23.3083769,25.7549907 23.4939237,25.8333328 23.708333,25.8333328 L25.2916662,25.8333328 C25.5060763,25.8333328 25.6916231,25.7549907 25.8483074,25.5983071 C26.004991,25.4416227 26.0833332,25.2560759 26.0833332,25.0416666 L26.0833332,21.0833332 L30.0416666,21.0833332 C30.2560759,21.0833332 30.4416235,21.004991 30.5983071,20.8483067 C30.7549914,20.6916231 30.8333328,20.5060763 30.8333328,20.2916662 L30.8333328,20.2916662 Z M34,13.5624995 L34,25.4374997 C34,26.4188365 33.6515843,27.2579209 32.9547523,27.9547523 C32.2579209,28.6515836 31.4188365,28.9999993 30.4374997,28.9999993 L18.5625003,28.9999993 C17.5811635,28.9999993 16.7420791,28.6515836 16.0452477,27.9547523 C15.3484157,27.2579209 15,26.4188365 15,25.4374997 L15,13.5624995 C15,12.5811627 15.3484157,11.7420791 16.0452477,11.045247 C16.7420791,10.3484157 17.5811635,10 18.5625003,10 L30.4374997,10 C31.4188365,10 32.2579209,10.3484157 32.9547523,11.045247 C33.6515843,11.7420791 34,12.5811627 34,13.5624995 L34,13.5624995 Z" id="Shape"></path>
                    </g>
                </g>
            </g>
        </g>
    </g>
</svg>