<?xml version="1.0" encoding="UTF-8" standalone="no"?>
<svg width="46px" height="30px" viewBox="0 0 46 30" version="1.1" xmlns="http://www.w3.org/2000/svg" xmlns:xlink="http://www.w3.org/1999/xlink">
    <!-- Generator: Sketch 39 (31667) - http://www.bohemiancoding.com/sketch -->
    <title>Info</title>
    <desc>Created with Sketch.</desc>
    <defs></defs>
    <g id="Page-1" stroke="none" stroke-width="1" fill="none" fill-rule="evenodd">
        <g id="Desktop-HD---Personal-Info" transform="translate(-696.000000, -199.000000)" fill="#0C2B5A">
            <g id="Breadcrumbs-Copy-2" transform="translate(0.000000, 165.000000)">
                <path d="M717.079198,45.1330285 L737.845365,45.1330285 L737.845365,41.93968 L717.079198,41.93968 L717.079198,45.1330285 Z M717.447533,48.7256839 L737.845365,48.7256839 L737.845365,48.2456309 L717.447533,48.2456309 L717.447533,48.7256839 Z M717.447533,51.6292309 L737.845365,51.6292309 L737.845365,51.1491778 L717.447533,51.1491778 L717.447533,51.6292309 Z M717.447533,54.5327778 L737.845365,54.5327778 L737.845365,54.0527247 L717.447533,54.0527247 L717.447533,54.5327778 Z M717.447533,57.4363248 L737.845365,57.4363248 L737.845365,56.9562717 L717.447533,56.9562717 L717.447533,57.4363248 Z M707.162894,57.5834378 C702.176536,57.5834378 699.754148,55.874493 699.754148,55.874493 C699.754148,55.874493 699.999705,51.2509402 700.952068,50.1857533 C700.952068,50.1857533 701.809306,49.5917705 702.632254,49.3782907 C702.632254,49.3782907 704.136568,49.0752157 704.864391,48.2522675 L705.029201,48.0520611 L705.098887,47.0775754 C705.098887,47.0775754 704.687412,46.5477472 704.46619,45.7723619 C704.46619,45.7723619 704.030381,45.5732616 704.089005,44.6341715 L704.089005,44.3167171 C704.089005,44.3167171 704.206253,44.1519062 704.301379,44.4217978 C704.301379,44.4217978 703.948529,41.8556154 705.181845,41.0669567 C705.181845,41.0669567 705.671853,40.4685495 707.162894,40.41435 C708.653934,40.4685495 709.143942,41.0669567 709.143942,41.0669567 C710.377258,41.8556154 710.023302,44.4217978 710.023302,44.4217978 C710.117322,44.1519062 710.235676,44.3167171 710.235676,44.3167171 L710.235676,44.6341715 C710.295406,45.5732616 709.859597,45.7723619 709.859597,45.7723619 C709.636163,46.5477472 709.225795,47.0775754 709.225795,47.0775754 L709.29548,48.0520611 L709.461397,48.2522675 C710.188113,49.0752157 711.692427,49.3782907 711.692427,49.3782907 C712.514269,49.5917705 713.372613,50.1857533 713.372613,50.1857533 C714.324976,51.2509402 714.571639,55.874493 714.571639,55.874493 C714.571639,55.874493 712.148145,57.5834378 707.162894,57.5834378 L707.162894,57.5834378 Z M738.308827,34 L699.318339,34 C697.48551,34 696,35.4844038 696,37.3183394 L696,60.6816606 C696,62.5155962 697.48551,64 699.318339,64 L738.308827,64 C740.141656,64 741.627166,62.5155962 741.627166,60.6816606 L741.627166,37.3183394 C741.627166,35.4844038 740.141656,34 738.308827,34 L738.308827,34 Z" id="Info"></path>
            </g>
        </g>
    </g>
</svg>