<?xml version="1.0" encoding="UTF-8" standalone="no"?>
<svg width="50px" height="50px" viewBox="0 0 50 50" version="1.1" xmlns="http://www.w3.org/2000/svg" xmlns:xlink="http://www.w3.org/1999/xlink">
    <!-- Generator: Sketch 3.8.3 (29802) - http://www.bohemiancoding.com/sketch -->
    <title>times circle</title>
    <desc>Created with Sketch.</desc>
    <defs></defs>
    <g id="Page-1" stroke="none" stroke-width="1" fill="none" fill-rule="evenodd">
        <g id="times-circle" fill="#1F3A66">
            <path d="M37.4023438,32.3567708 C37.4023438,31.7925347 37.1961806,31.3042535 36.7838542,30.8919271 L30.8919271,25 L36.7838542,19.1080729 C37.1961806,18.6957465 37.4023438,18.2074653 37.4023438,17.6432292 C37.4023438,17.0572917 37.1961806,16.5581597 36.7838542,16.1458333 L33.8541667,13.2161458 C33.4418403,12.8038194 32.9427083,12.5976563 32.3567708,12.5976563 C31.7925347,12.5976563 31.3042535,12.8038194 30.8919271,13.2161458 L25,19.1080729 L19.1080729,13.2161458 C18.6957465,12.8038194 18.2074653,12.5976563 17.6432292,12.5976563 C17.0572917,12.5976563 16.5581597,12.8038194 16.1458333,13.2161458 L13.2161458,16.1458333 C12.8038194,16.5581597 12.5976563,17.0572917 12.5976563,17.6432292 C12.5976563,18.2074653 12.8038194,18.6957465 13.2161458,19.1080729 L19.1080729,25 L13.2161458,30.8919271 C12.8038194,31.3042535 12.5976563,31.7925347 12.5976563,32.3567708 C12.5976563,32.9427083 12.8038194,33.4418403 13.2161458,33.8541667 L16.1458333,36.7838542 C16.5581597,37.1961806 17.0572917,37.4023438 17.6432292,37.4023438 C18.2074653,37.4023438 18.6957465,37.1961806 19.1080729,36.7838542 L25,30.8919271 L30.8919271,36.7838542 C31.3042535,37.1961806 31.7925347,37.4023438 32.3567708,37.4023438 C32.9427083,37.4023438 33.4418403,37.1961806 33.8541667,36.7838542 L36.7838542,33.8541667 C37.1961806,33.4418403 37.4023438,32.9427083 37.4023438,32.3567708 L37.4023438,32.3567708 Z M50,25 C50,29.5355903 48.8823785,33.718533 46.6471354,37.5488281 C44.4118924,41.3791233 41.3791233,44.4118924 37.5488281,46.6471354 C33.718533,48.8823785 29.5355903,50 25,50 C20.4644097,50 16.281467,48.8823785 12.4511719,46.6471354 C8.62087673,44.4118924 5.58810765,41.3791233 3.35286458,37.5488281 C1.11762152,33.718533 0,29.5355903 0,25 C0,20.4644097 1.11762152,16.281467 3.35286458,12.4511719 C5.58810765,8.62087673 8.62087673,5.58810765 12.4511719,3.35286458 C16.281467,1.11762152 20.4644097,0 25,0 C29.5355903,0 33.718533,1.11762152 37.5488281,3.35286458 C41.3791233,5.58810765 44.4118924,8.62087673 46.6471354,12.4511719 C48.8823785,16.281467 50,20.4644097 50,25 L50,25 Z" id="Shape"></path>
        </g>
    </g>
</svg>