<?xml version="1.0" encoding="UTF-8" standalone="no"?>
<svg width="67px" height="43px" viewBox="0 0 67 43" version="1.1" xmlns="http://www.w3.org/2000/svg" xmlns:xlink="http://www.w3.org/1999/xlink">
    <!-- Generator: Sketch 3.8.3 (29802) - http://www.bohemiancoding.com/sketch -->
    <title>Group</title>
    <desc>Created with Sketch.</desc>
    <defs></defs>
    <g id="Page-1" stroke="none" stroke-width="1" fill="none" fill-rule="evenodd">
        <g id="Desktop-HD" transform="translate(-686.000000, -813.000000)" fill="#1F3A66">
            <g id="How-It-Works-Copy" transform="translate(0.000000, 714.000000)">
                <g id="Step-2" transform="translate(552.000000, 71.000000)">
                    <g id="Icon-1" transform="translate(118.000000, 0.000000)">
                        <g id="Group" transform="translate(16.000000, 28.000000)">
                            <polyline id="Fill-407" points="40.936 28.2131667 0.437405405 28.2058333 0.444756757 0.333666667 40.9396757 0.341 40.936 28.2131667"></polyline>
                            <path d="M13.5908108,37.6126667 C13.5926486,40.2765 11.4258378,42.4416667 8.74810811,42.438 C6.07772973,42.4343333 3.90908108,40.2765 3.90908108,37.609 C3.91091892,34.9415 6.07772973,32.78 8.75362162,32.78 C11.424,32.7781667 13.5926486,34.9415 13.5908108,37.6126667" id="Fill-408"></path>
                            <path d="M62.9808649,37.3138333 C62.979027,39.9795 60.8085405,42.1373333 58.1381622,42.1373333 C55.4641081,42.1373333 53.2954595,39.9758333 53.2972973,37.312 C53.2972973,34.6426667 55.4659459,32.4811667 58.1381622,32.4811667 C60.8122162,32.4848333 62.9808649,34.6481667 62.9808649,37.3138333" id="Fill-409"></path>
                            <polyline id="Fill-410" points="66.5793514 31.0841667 0.435567568 31.075 0.435567568 29.3003333 66.583027 29.3076667 66.5793514 31.0841667"></polyline>
                            <path d="M54.8833514,17.6935 L54.8833514,10.2465 L61.1154595,10.2501667 L63.512,17.6916667 L54.8833514,17.6935 L54.8833514,17.6935 Z M62.4387027,7.88516667 L43.1744865,7.88333333 L43.1671351,28.2131667 L66.5811892,28.215 L66.5793514,17.831 L62.4387027,7.88516667 L62.4387027,7.88516667 Z" id="Fill-411"></path>
                        </g>
                    </g>
                </g>
            </g>
        </g>
    </g>
</svg>